STARTFONT 2.1
FONT -Adobe-Courier-Medium-R-Normal--24-240-75-75-M-150-ISO8859-2
SIZE 24 75 75
FONTBOUNDINGBOX 16 24 -1 -5
COMMENT $XConsortium: courR24.bdf,v 1.11 95/01/26 18:01:22 gildea Exp $
COMMENT 
COMMENT +
COMMENT  Copyright 1984-1989, 1994 Adobe Systems Incorporated.
COMMENT  Copyright 1988, 1994 Digital Equipment Corporation.
COMMENT
COMMENT  Adobe is a trademark of Adobe Systems Incorporated which may be
COMMENT  registered in certain jurisdictions.
COMMENT  Permission to use these trademarks is hereby granted only in
COMMENT  association with the images described in this file.
COMMENT
COMMENT  Permission to use, copy, modify, distribute and sell this software
COMMENT  and its documentation for any purpose and without fee is hereby
COMMENT  granted, provided that the above copyright notices appear in all
COMMENT  copies and that both those copyright notices and this permission
COMMENT  notice appear in supporting documentation, and that the names of
COMMENT  Adobe Systems and Digital Equipment Corporation not be used in
COMMENT  advertising or publicity pertaining to distribution of the software
COMMENT  without specific, written prior permission.  Adobe Systems and
COMMENT  Digital Equipment Corporation make no representations about the
COMMENT  suitability of this software for any purpose.  It is provided "as
COMMENT  is" without express or implied warranty.
COMMENT -
COMMENT  
COMMENT  Translation to ISO8859-2 by Cub Soft;  Petr.Kolar@vslib.cz
COMMENT  
STARTPROPERTIES 28
FOUNDRY "Adobe"
FAMILY_NAME "Courier"
WEIGHT_NAME "Medium"
SLANT "R"
SETWIDTH_NAME "Normal"
ADD_STYLE_NAME ""
PIXEL_SIZE 24
POINT_SIZE 240
RESOLUTION_X 75
RESOLUTION_Y 75
SPACING "M"
AVERAGE_WIDTH 150
CHARSET_REGISTRY "ISO8859"
CHARSET_ENCODING "2"
CAP_HEIGHT 14
X_HEIGHT 11
FONT_ASCENT 19
FONT_DESCENT 5
FACE_NAME "Courier"

STARTCHAR space
ENCODING 32
SWIDTH 600 0
DWIDTH 15 0
BBX 1 1 0 0
BITMAP
00
ENDCHAR
STARTCHAR exclam
ENCODING 33
SWIDTH 600 0
DWIDTH 15 0
BBX 2 15 7 0
BITMAP
80
80
80
80
80
80
80
80
80
80
00
00
00
c0
c0
ENDCHAR
STARTCHAR quotedbl
ENCODING 34
SWIDTH 600 0
DWIDTH 15 0
BBX 8 7 3 8
BITMAP
e7
e7
e7
e7
42
42
42
ENDCHAR
STARTCHAR numbersign
ENCODING 35
SWIDTH 600 0
DWIDTH 15 0
BBX 10 17 2 -1
BITMAP
0900
0900
0900
0900
0900
0900
7fc0
1200
1200
1200
ff80
1200
1200
1200
1200
1200
1200
ENDCHAR
STARTCHAR dollar
ENCODING 36
SWIDTH 600 0
DWIDTH 15 0
BBX 8 20 4 -3
BITMAP
10
10
10
3d
43
81
80
80
40
3c
02
01
01
81
c2
bc
10
10
10
10
ENDCHAR
STARTCHAR percent
ENCODING 37
SWIDTH 600 0
DWIDTH 15 0
BBX 12 16 1 0
BITMAP
1c00
2200
4100
4100
4100
2200
1c70
0380
1c00
e1c0
0220
0410
0410
0410
0220
01c0
ENDCHAR
STARTCHAR ampersand
ENCODING 38
SWIDTH 600 0
DWIDTH 15 0
BBX 10 13 2 0
BITMAP
1d00
2600
2000
2000
1000
3000
4980
8900
8600
8200
8300
4500
38c0
ENDCHAR
STARTCHAR apostrophe
ENCODING 39
SWIDTH 600 0
DWIDTH 15 0
BBX 5 6 4 9
BITMAP
38
38
70
60
c0
c0
ENDCHAR
STARTCHAR parenleft
ENCODING 40
SWIDTH 600 0
DWIDTH 15 0
BBX 4 19 7 -3
BITMAP
10
20
20
40
40
40
80
80
80
80
80
80
80
40
40
40
20
20
10
ENDCHAR
STARTCHAR parenright
ENCODING 41
SWIDTH 600 0
DWIDTH 15 0
BBX 4 19 3 -3
BITMAP
80
40
40
20
20
20
10
10
10
10
10
10
10
20
20
20
40
40
80
ENDCHAR
STARTCHAR asterisk
ENCODING 42
SWIDTH 600 0
DWIDTH 15 0
BBX 9 9 3 7
BITMAP
0800
0800
0800
c980
7f00
1c00
3600
6300
c180
ENDCHAR
STARTCHAR plus
ENCODING 43
SWIDTH 600 0
DWIDTH 15 0
BBX 11 13 2 1
BITMAP
0400
0400
0400
0400
0400
0400
ffe0
0400
0400
0400
0400
0400
0400
ENDCHAR
STARTCHAR comma
ENCODING 44
SWIDTH 600 0
DWIDTH 15 0
BBX 5 6 4 -3
BITMAP
38
38
70
60
c0
80
ENDCHAR
STARTCHAR minus
ENCODING 45
SWIDTH 600 0
DWIDTH 15 0
BBX 11 1 2 7
BITMAP
ffe0
ENDCHAR
STARTCHAR period
ENCODING 46
SWIDTH 600 0
DWIDTH 15 0
BBX 3 3 6 0
BITMAP
e0
e0
e0
ENDCHAR
STARTCHAR slash
ENCODING 47
SWIDTH 600 0
DWIDTH 15 0
BBX 9 18 3 -2
BITMAP
0080
0080
0100
0100
0200
0200
0400
0400
0800
0800
1000
1000
2000
2000
4000
4000
8000
8000
ENDCHAR
STARTCHAR zero
ENCODING 48
SWIDTH 600 0
DWIDTH 15 0
BBX 9 15 3 0
BITMAP
1c00
6300
4100
8080
8080
8080
8080
8080
8080
8080
8080
8080
4100
6300
1c00
ENDCHAR
STARTCHAR one
ENCODING 49
SWIDTH 600 0
DWIDTH 15 0
BBX 9 15 3 0
BITMAP
1800
e800
0800
0800
0800
0800
0800
0800
0800
0800
0800
0800
0800
0800
ff80
ENDCHAR
STARTCHAR two
ENCODING 50
SWIDTH 600 0
DWIDTH 15 0
BBX 9 15 2 0
BITMAP
1c00
6300
8080
8080
0080
0080
0100
0200
0400
0800
1000
2000
4000
8080
ff80
ENDCHAR
STARTCHAR three
ENCODING 51
SWIDTH 600 0
DWIDTH 15 0
BBX 10 15 2 0
BITMAP
0f00
3080
4040
0040
0040
0080
0f00
0100
0080
0040
0040
0040
8040
6080
1f00
ENDCHAR
STARTCHAR four
ENCODING 52
SWIDTH 600 0
DWIDTH 15 0
BBX 10 15 2 0
BITMAP
0700
0500
0900
0900
1100
1100
2100
4100
4100
8100
ffc0
0100
0100
0100
0780
ENDCHAR
STARTCHAR five
ENCODING 53
SWIDTH 600 0
DWIDTH 15 0
BBX 10 15 2 0
BITMAP
7f80
4000
4000
4000
4000
4000
7f00
0080
0040
0040
0040
0040
0080
c180
3e00
ENDCHAR
STARTCHAR six
ENCODING 54
SWIDTH 600 0
DWIDTH 15 0
BBX 9 15 3 0
BITMAP
0780
1800
2000
4000
4000
8000
9e00
a100
c080
8080
8080
8080
4080
6100
1e00
ENDCHAR
STARTCHAR seven
ENCODING 55
SWIDTH 600 0
DWIDTH 15 0
BBX 9 15 2 0
BITMAP
ff80
8080
8080
0100
0100
0100
0200
0200
0200
0400
0400
0400
0800
0800
0800
ENDCHAR
STARTCHAR eight
ENCODING 56
SWIDTH 600 0
DWIDTH 15 0
BBX 10 15 2 0
BITMAP
1e00
6180
4080
8040
8040
4080
3f00
6180
4080
8040
8040
8040
4080
6180
1e00
ENDCHAR
STARTCHAR nine
ENCODING 57
SWIDTH 600 0
DWIDTH 15 0
BBX 9 15 3 0
BITMAP
1c00
6200
4100
8080
8080
8080
8180
6280
1c80
0080
0080
0100
0100
0600
f800
ENDCHAR
STARTCHAR colon
ENCODING 58
SWIDTH 600 0
DWIDTH 15 0
BBX 3 11 6 0
BITMAP
e0
e0
e0
00
00
00
00
00
e0
e0
e0
ENDCHAR
STARTCHAR semicolon
ENCODING 59
SWIDTH 600 0
DWIDTH 15 0
BBX 5 14 4 -3
BITMAP
38
38
38
00
00
00
00
00
38
38
70
60
c0
80
ENDCHAR
STARTCHAR less
ENCODING 60
SWIDTH 600 0
DWIDTH 15 0
BBX 12 11 1 2
BITMAP
0070
01c0
0700
1c00
7000
c000
7000
1c00
0700
01c0
0070
ENDCHAR
STARTCHAR equal
ENCODING 61
SWIDTH 600 0
DWIDTH 15 0
BBX 12 4 1 5
BITMAP
fff0
0000
0000
fff0
ENDCHAR
STARTCHAR greater
ENCODING 62
SWIDTH 600 0
DWIDTH 15 0
BBX 12 11 1 2
BITMAP
e000
3800
0e00
0380
00e0
0030
00e0
0380
0e00
3800
e000
ENDCHAR
STARTCHAR question
ENCODING 63
SWIDTH 600 0
DWIDTH 15 0
BBX 8 14 3 0
BITMAP
7c
82
81
01
01
01
02
0c
10
10
00
00
18
18
ENDCHAR
STARTCHAR at
ENCODING 64
SWIDTH 600 0
DWIDTH 15 0
BBX 10 18 2 -2
BITMAP
1e00
6100
4080
8080
8080
8380
8480
8880
8880
8880
8880
8480
83c0
8000
8000
4000
6180
1f00
ENDCHAR
STARTCHAR A
ENCODING 65
SWIDTH 600 0
DWIDTH 15 0
BBX 13 14 1 0
BITMAP
3f00
0500
0880
0880
0880
1040
1040
1040
3fe0
2020
2020
4010
4010
f078
ENDCHAR
STARTCHAR B
ENCODING 66
SWIDTH 600 0
DWIDTH 15 0
BBX 12 14 1 0
BITMAP
ffc0
2020
2010
2010
2010
2020
3fc0
2020
2010
2010
2010
2010
2020
ffc0
ENDCHAR
STARTCHAR C
ENCODING 67
SWIDTH 600 0
DWIDTH 15 0
BBX 11 14 2 0
BITMAP
0f20
30e0
6060
4020
8000
8000
8000
8000
8000
8000
4020
6060
30c0
0f00
ENDCHAR
STARTCHAR D
ENCODING 68
SWIDTH 600 0
DWIDTH 15 0
BBX 12 14 1 0
BITMAP
ff80
4060
4020
4010
4010
4010
4010
4010
4010
4010
4010
4020
4060
ff80
ENDCHAR
STARTCHAR E
ENCODING 69
SWIDTH 600 0
DWIDTH 15 0
BBX 12 14 1 0
BITMAP
ffe0
2020
2020
2020
2200
2200
3e00
2200
2200
2010
2010
2010
2010
fff0
ENDCHAR
STARTCHAR F
ENCODING 70
SWIDTH 600 0
DWIDTH 15 0
BBX 11 14 2 0
BITMAP
ffe0
2020
2020
2020
2200
2200
3e00
2200
2200
2000
2000
2000
2000
fe00
ENDCHAR
STARTCHAR G
ENCODING 71
SWIDTH 600 0
DWIDTH 15 0
BBX 12 14 1 0
BITMAP
0f20
30e0
6060
4020
8000
8000
8000
8000
83f0
8020
4020
6020
3040
0f80
ENDCHAR
STARTCHAR H
ENCODING 72
SWIDTH 600 0
DWIDTH 15 0
BBX 13 14 1 0
BITMAP
f8f8
2020
2020
2020
2020
2020
3fe0
2020
2020
2020
2020
2020
2020
f8f8
ENDCHAR
STARTCHAR I
ENCODING 73
SWIDTH 600 0
DWIDTH 15 0
BBX 9 14 3 0
BITMAP
ff80
0800
0800
0800
0800
0800
0800
0800
0800
0800
0800
0800
0800
ff80
ENDCHAR
STARTCHAR J
ENCODING 74
SWIDTH 600 0
DWIDTH 15 0
BBX 12 14 2 0
BITMAP
1ff0
0080
0080
0080
0080
0080
0080
0080
8080
8080
8080
8100
4300
3c00
ENDCHAR
STARTCHAR K
ENCODING 75
SWIDTH 600 0
DWIDTH 15 0
BBX 13 14 1 0
BITMAP
f8f0
2040
2080
2100
2200
2400
2e00
3300
2180
2080
20c0
2040
2060
f838
ENDCHAR
STARTCHAR L
ENCODING 76
SWIDTH 600 0
DWIDTH 15 0
BBX 12 14 1 0
BITMAP
fe00
1000
1000
1000
1000
1000
1000
1000
1000
1010
1010
1010
1010
fff0
ENDCHAR
STARTCHAR M
ENCODING 77
SWIDTH 600 0
DWIDTH 15 0
BBX 13 14 1 0
BITMAP
e038
6030
6030
5050
5050
4890
4890
4510
4710
4010
4010
4010
4010
f078
ENDCHAR
STARTCHAR N
ENCODING 78
SWIDTH 600 0
DWIDTH 15 0
BBX 14 14 0 0
BITMAP
f0fc
3010
2810
2410
2410
2210
2210
2110
2110
2090
2090
2050
2030
fc30
ENDCHAR
STARTCHAR O
ENCODING 79
SWIDTH 600 0
DWIDTH 15 0
BBX 12 14 1 0
BITMAP
0f00
30c0
6060
4020
8010
8010
8010
8010
8010
8010
4020
6060
30c0
0f00
ENDCHAR
STARTCHAR P
ENCODING 80
SWIDTH 600 0
DWIDTH 15 0
BBX 11 14 2 0
BITMAP
ff80
2040
2020
2020
2020
2020
2040
3f80
2000
2000
2000
2000
2000
fe00
ENDCHAR
STARTCHAR Q
ENCODING 81
SWIDTH 600 0
DWIDTH 15 0
BBX 12 16 1 -2
BITMAP
0f00
30c0
6060
4020
8010
8010
8010
8010
8010
8010
4020
6060
30c0
0f00
0c30
33c0
ENDCHAR
STARTCHAR R
ENCODING 82
SWIDTH 600 0
DWIDTH 15 0
BBX 13 14 1 0
BITMAP
ff80
2040
2020
2020
2020
2020
2040
3f80
2100
2080
2040
2040
2020
f838
ENDCHAR
STARTCHAR S
ENCODING 83
SWIDTH 600 0
DWIDTH 15 0
BBX 10 14 2 0
BITMAP
1e40
61c0
80c0
8040
8000
6000
1e00
0180
0040
0040
8040
c040
e080
9f00
ENDCHAR
STARTCHAR T
ENCODING 84
SWIDTH 600 0
DWIDTH 15 0
BBX 11 14 2 0
BITMAP
ffe0
8420
8420
8420
8420
0400
0400
0400
0400
0400
0400
0400
0400
3f80
ENDCHAR
STARTCHAR U
ENCODING 85
SWIDTH 600 0
DWIDTH 15 0
BBX 12 14 1 0
BITMAP
f0f0
4020
4020
4020
4020
4020
4020
4020
4020
4020
4020
4020
2040
1f80
ENDCHAR
STARTCHAR V
ENCODING 86
SWIDTH 600 0
DWIDTH 15 0
BBX 13 14 1 0
BITMAP
f078
4010
4010
2020
2020
1040
1040
1040
0880
0880
0880
0500
0700
0200
ENDCHAR
STARTCHAR W
ENCODING 87
SWIDTH 600 0
DWIDTH 15 0
BBX 13 14 1 0
BITMAP
f8f8
4010
4010
4210
4210
4510
4510
2520
28a0
28a0
28a0
3060
3060
3060
ENDCHAR
STARTCHAR X
ENCODING 88
SWIDTH 600 0
DWIDTH 15 0
BBX 13 14 1 0
BITMAP
f8f8
2020
1040
1040
0880
0880
0500
0200
0500
0880
1040
1040
2020
f8f8
ENDCHAR
STARTCHAR Y
ENCODING 89
SWIDTH 600 0
DWIDTH 15 0
BBX 13 14 1 0
BITMAP
f078
2020
1040
1040
0880
0880
0500
0200
0200
0200
0200
0200
0200
1fc0
ENDCHAR
STARTCHAR Z
ENCODING 90
SWIDTH 600 0
DWIDTH 15 0
BBX 10 14 2 0
BITMAP
ffc0
8040
8080
8100
8200
0200
0400
0800
1000
1040
2040
4040
8040
ffc0
ENDCHAR
STARTCHAR bracketleft
ENCODING 91
SWIDTH 600 0
DWIDTH 15 0
BBX 3 19 7 -3
BITMAP
e0
80
80
80
80
80
80
80
80
80
80
80
80
80
80
80
80
80
e0
ENDCHAR
STARTCHAR backslash
ENCODING 92
SWIDTH 600 0
DWIDTH 15 0
BBX 9 18 3 -2
BITMAP
8000
8000
4000
4000
2000
2000
1000
1000
0800
0800
0400
0400
0200
0200
0100
0100
0080
0080
ENDCHAR
STARTCHAR bracketright
ENCODING 93
SWIDTH 600 0
DWIDTH 15 0
BBX 3 19 5 -3
BITMAP
e0
20
20
20
20
20
20
20
20
20
20
20
20
20
20
20
20
20
e0
ENDCHAR
STARTCHAR asciicircum
ENCODING 94
SWIDTH 600 0
DWIDTH 15 0
BBX 11 6 2 10
BITMAP
0400
0a00
1100
2080
4040
8020
ENDCHAR
STARTCHAR underscore
ENCODING 95
SWIDTH 600 0
DWIDTH 15 0
BBX 15 1 0 -5
BITMAP
fffe
ENDCHAR
STARTCHAR grave
ENCODING 96
SWIDTH 600 0
DWIDTH 15 0
BBX 5 4 4 12
BITMAP
c0
60
30
18
ENDCHAR
STARTCHAR a
ENCODING 97
SWIDTH 600 0
DWIDTH 15 0
BBX 11 11 2 0
BITMAP
1e00
6100
0080
0080
0080
3f80
4080
8080
8080
8180
7ee0
ENDCHAR
STARTCHAR b
ENCODING 98
SWIDTH 600 0
DWIDTH 15 0
BBX 13 16 1 0
BITMAP
e000
2000
2000
2000
2000
27c0
3830
3010
2008
2008
2008
2008
2008
3010
3830
e7c0
ENDCHAR
STARTCHAR c
ENCODING 99
SWIDTH 600 0
DWIDTH 15 0
BBX 11 11 2 0
BITMAP
1f40
60c0
4040
8040
8000
8000
8000
8000
4060
60c0
1f00
ENDCHAR
STARTCHAR d
ENCODING 100
SWIDTH 600 0
DWIDTH 15 0
BBX 13 16 1 0
BITMAP
00e0
0020
0020
0020
0020
1f20
60e0
4060
8020
8020
8020
8020
8020
4060
60e0
1f38
ENDCHAR
STARTCHAR e
ENCODING 101
SWIDTH 600 0
DWIDTH 15 0
BBX 11 11 2 0
BITMAP
1f00
60c0
4040
8020
8020
ffe0
8000
8000
4000
6060
1f80
ENDCHAR
STARTCHAR f
ENCODING 102
SWIDTH 600 0
DWIDTH 15 0
BBX 10 16 3 0
BITMAP
07c0
0800
1000
1000
1000
ff80
1000
1000
1000
1000
1000
1000
1000
1000
1000
ff80
ENDCHAR
STARTCHAR g
ENCODING 103
SWIDTH 600 0
DWIDTH 15 0
BBX 13 16 1 -5
BITMAP
1f38
60e0
4060
8020
8020
8020
8020
8020
4060
60e0
1f20
0020
0020
0040
00c0
3f00
ENDCHAR
STARTCHAR h
ENCODING 104
SWIDTH 600 0
DWIDTH 15 0
BBX 13 16 1 0
BITMAP
e000
2000
2000
2000
2000
2780
2840
3020
2020
2020
2020
2020
2020
2020
2020
f8f8
ENDCHAR
STARTCHAR i
ENCODING 105
SWIDTH 600 0
DWIDTH 15 0
BBX 9 16 3 0
BITMAP
0800
0800
0800
0000
0000
7800
0800
0800
0800
0800
0800
0800
0800
0800
0800
ff80
ENDCHAR
STARTCHAR j
ENCODING 106
SWIDTH 600 0
DWIDTH 15 0
BBX 8 21 3 -5
BITMAP
02
02
02
00
00
ff
01
01
01
01
01
01
01
01
01
01
01
01
02
06
f8
ENDCHAR
STARTCHAR k
ENCODING 107
SWIDTH 600 0
DWIDTH 15 0
BBX 11 16 2 0
BITMAP
e000
2000
2000
2000
2000
23c0
2100
2200
2400
2800
3800
2400
2200
2100
2080
e1e0
ENDCHAR
STARTCHAR l
ENCODING 108
SWIDTH 600 0
DWIDTH 15 0
BBX 11 16 2 0
BITMAP
7c00
0400
0400
0400
0400
0400
0400
0400
0400
0400
0400
0400
0400
0400
0400
ffe0
ENDCHAR
STARTCHAR m
ENCODING 109
SWIDTH 600 0
DWIDTH 15 0
BBX 14 11 0 0
BITMAP
ee70
3188
2108
2108
2108
2108
2108
2108
2108
2108
f98c
ENDCHAR
STARTCHAR n
ENCODING 110
SWIDTH 600 0
DWIDTH 15 0
BBX 13 11 1 0
BITMAP
e780
2840
3020
2020
2020
2020
2020
2020
2020
2020
f8f8
ENDCHAR
STARTCHAR o
ENCODING 111
SWIDTH 600 0
DWIDTH 15 0
BBX 11 11 2 0
BITMAP
1f00
60c0
4040
8020
8020
8020
8020
8020
4040
60c0
1f00
ENDCHAR
STARTCHAR p
ENCODING 112
SWIDTH 600 0
DWIDTH 15 0
BBX 13 16 1 -5
BITMAP
e7c0
3830
3010
2008
2008
2008
2008
2008
3010
3830
27c0
2000
2000
2000
2000
fc00
ENDCHAR
STARTCHAR q
ENCODING 113
SWIDTH 600 0
DWIDTH 15 0
BBX 13 16 1 -5
BITMAP
1f38
60e0
4060
8020
8020
8020
8020
8020
4060
60e0
1f20
0020
0020
0020
0020
01f8
ENDCHAR
STARTCHAR r
ENCODING 114
SWIDTH 600 0
DWIDTH 15 0
BBX 11 11 2 0
BITMAP
71c0
1620
1800
1000
1000
1000
1000
1000
1000
1000
ff80
ENDCHAR
STARTCHAR s
ENCODING 115
SWIDTH 600 0
DWIDTH 15 0
BBX 9 11 3 0
BITMAP
3e80
4180
4080
4000
3c00
0300
0080
0080
8080
c100
be00
ENDCHAR
STARTCHAR t
ENCODING 116
SWIDTH 600 0
DWIDTH 15 0
BBX 10 15 2 0
BITMAP
2000
2000
2000
2000
ff80
2000
2000
2000
2000
2000
2000
2000
2000
10c0
0f00
ENDCHAR
STARTCHAR u
ENCODING 117
SWIDTH 600 0
DWIDTH 15 0
BBX 12 11 1 0
BITMAP
e0e0
2020
2020
2020
2020
2020
2020
2020
2060
10a0
0f30
ENDCHAR
STARTCHAR v
ENCODING 118
SWIDTH 600 0
DWIDTH 15 0
BBX 13 11 1 0
BITMAP
f8f8
2020
2020
1040
1040
1040
0880
0880
0500
0700
0200
ENDCHAR
STARTCHAR w
ENCODING 119
SWIDTH 600 0
DWIDTH 15 0
BBX 13 11 1 0
BITMAP
f078
4010
4010
4210
2220
2520
2520
2520
1540
18c0
18c0
ENDCHAR
STARTCHAR x
ENCODING 120
SWIDTH 600 0
DWIDTH 15 0
BBX 13 11 1 0
BITMAP
f8f8
2020
1040
0880
0500
0200
0500
0880
1040
2020
f8f8
ENDCHAR
STARTCHAR y
ENCODING 121
SWIDTH 600 0
DWIDTH 15 0
BBX 12 16 1 -5
BITMAP
f0f0
4020
4020
2040
2040
2080
1080
1100
0900
0a00
0600
0400
0400
0800
0800
fe00
ENDCHAR
STARTCHAR z
ENCODING 122
SWIDTH 600 0
DWIDTH 15 0
BBX 9 11 3 0
BITMAP
ff80
8080
8100
0200
0400
0800
1000
2000
4080
8080
ff80
ENDCHAR
STARTCHAR braceleft
ENCODING 123
SWIDTH 600 0
DWIDTH 15 0
BBX 5 19 5 -3
BITMAP
18
20
20
20
20
20
20
20
20
c0
20
20
20
20
20
20
20
20
18
ENDCHAR
STARTCHAR bar
ENCODING 124
SWIDTH 600 0
DWIDTH 15 0
BBX 1 19 7 -3
BITMAP
80
80
80
80
80
80
80
80
80
80
80
80
80
80
80
80
80
80
80
ENDCHAR
STARTCHAR braceright
ENCODING 125
SWIDTH 600 0
DWIDTH 15 0
BBX 5 19 5 -3
BITMAP
c0
20
20
20
20
20
20
20
20
18
20
20
20
20
20
20
20
20
c0
ENDCHAR
STARTCHAR asciitilde
ENCODING 126
SWIDTH 600 0
DWIDTH 15 0
BBX 10 3 2 6
BITMAP
7840
8c40
8780
ENDCHAR
STARTCHAR nobreakspace
ENCODING 160
SWIDTH 600 0
DWIDTH 15 0
BBX 1 1 0 0
BITMAP
00
ENDCHAR
STARTCHAR Aogonek
ENCODING 161
SWIDTH 600 0
DWIDTH 15 0
BBX 13 19 1 -5
BITMAP
3f00
0500
0880
0880
0880
1040
1040
1040
3fe0
2020
2020
4010
4010
f078
0100
0200
0400
0480
0300
ENDCHAR
STARTCHAR breve
ENCODING 162
SWIDTH 600 0
DWIDTH 15 0
BBX 8 3 3 12
BITMAP
c3
66
3c
ENDCHAR
STARTCHAR Lstroke
ENCODING 163
SWIDTH 600 0
DWIDTH 15 0
BBX 12 14 1 0
BITMAP
fe00
1000
1000
1000
1200
1400
1800
3000
5000
9010
1010
1010
1010
fff0
ENDCHAR
STARTCHAR currency
ENCODING 164
SWIDTH 600 0
DWIDTH 15 0
BBX 10 10 2 2
BITMAP
8040
5e80
2100
4080
4080
4080
4080
2100
5e80
8040
ENDCHAR
STARTCHAR Lcaron
ENCODING 165
SWIDTH 640 0
DWIDTH 16 0
BBX 13 16 1 0
BITMAP
0038
0038
fe70
1060
10c0
10c0
1000
1000
1000
1000
1000
1010
1010
1010
1010
fff0
ENDCHAR
STARTCHAR Sacute
ENCODING 166
SWIDTH 600 0
DWIDTH 15 0
BBX 10 19 2 0
BITMAP
0180
0300
0600
0c00
0000
1e40
61c0
80c0
8040
8000
6000
1e00
0180
0040
0040
8040
c040
e080
9f00
ENDCHAR
STARTCHAR section
ENCODING 167
SWIDTH 600 0
DWIDTH 15 0
BBX 10 18 2 -2
BITMAP
0fc0
1040
2040
2040
2000
7000
8c00
8200
4100
2080
1040
0c40
0380
0100
8100
8100
8200
fc00
ENDCHAR
STARTCHAR diaeresis
ENCODING 168
SWIDTH 600 0
DWIDTH 15 0
BBX 7 2 4 12
BITMAP
c6
c6
ENDCHAR
STARTCHAR Scaron
ENCODING 169
SWIDTH 600 0
DWIDTH 15 0
BBX 10 19 2 0
BITMAP
6180
3300
1e00
0c00
0000
1e40
61c0
80c0
8040
8000
6000
1e00
0180
0040
0040
8040
c040
e080
9f00
ENDCHAR
STARTCHAR Scedilla
ENCODING 170
SWIDTH 600 0
DWIDTH 15 0
BBX 10 19 2 -5
BITMAP
1e40
61c0
80c0
8040
8000
6000
1e00
0180
0040
0040
8040
c040
e080
9f00
0400
0400
0200
1200
0c00
ENDCHAR
STARTCHAR Tcaron
ENCODING 171
SWIDTH 600 0
DWIDTH 15 0
BBX 11 19 2 0
BITMAP
30c0
1980
0f00
0600
0000
ffe0
8420
8420
8420
8420
0400
0400
0400
0400
0400
0400
0400
0400
3f80
ENDCHAR
STARTCHAR Zacute
ENCODING 172
SWIDTH 600 0
DWIDTH 15 0
BBX 10 19 2 0
BITMAP
0180
0300
0600
0c00
0000
ffc0
8040
8080
8100
8200
0200
0400
0800
1000
1040
2040
4040
8040
ffc0
ENDCHAR
STARTCHAR hyphen
ENCODING 173
SWIDTH 600 0
DWIDTH 15 0
BBX 10 1 2 7
BITMAP
ffc0
ENDCHAR
STARTCHAR Zcaron
ENCODING 174
SWIDTH 600 0
DWIDTH 15 0
BBX 10 19 2 0
BITMAP
6180
3300
1e00
0c00
0000
ffc0
8040
8080
8100
8200
0200
0400
0800
1000
1040
2040
4040
8040
ffc0
ENDCHAR
STARTCHAR Zabovedot
ENCODING 175
SWIDTH 600 0
DWIDTH 15 0
BBX 10 17 2 0
BITMAP
0c00
0c00
0000
ffc0
8040
8080
8100
8200
0200
0400
0800
1000
1040
2040
4040
8040
ffc0
ENDCHAR
STARTCHAR degree
ENCODING 176
SWIDTH 600 0
DWIDTH 15 0
BBX 7 7 4 9
BITMAP
38
44
82
82
82
44
38
ENDCHAR
STARTCHAR aogonek
ENCODING 177
SWIDTH 600 0
DWIDTH 15 0
BBX 11 16 2 -5
BITMAP
1e00
6100
0080
0080
0080
3f80
4080
8080
8080
8180
7ee0
0200
0400
0800
0900
0600
ENDCHAR
STARTCHAR ogonek
ENCODING 178
SWIDTH 600 0
DWIDTH 15 0
BBX 4 5 6 -4
BITMAP
20
40
80
90
60
ENDCHAR
STARTCHAR lstroke
ENCODING 179
SWIDTH 600 0
DWIDTH 15 0
BBX 11 16 2 0
BITMAP
7c00
0400
0400
0400
0400
0400
0580
0600
0c00
3400
0400
0400
0400
0400
0400
ffe0
ENDCHAR
STARTCHAR acute
ENCODING 180
SWIDTH 600 0
DWIDTH 15 0
BBX 5 4 5 12
BITMAP
18
30
60
c0
ENDCHAR
STARTCHAR lcaron
ENCODING 181
SWIDTH 640 0
DWIDTH 16 0
BBX 12 18 2 0
BITMAP
0070
0070
7ce0
04c0
0580
0580
0400
0400
0400
0400
0400
0400
0400
0400
0400
0400
0400
ffe0
ENDCHAR
STARTCHAR sacute
ENCODING 182
SWIDTH 600 0
DWIDTH 15 0
BBX 9 16 3 0
BITMAP
0180
0300
0600
0c00
0000
3e80
4180
4080
4000
3c00
0300
0080
0080
8080
c100
be00
ENDCHAR
STARTCHAR caron
ENCODING 183
SWIDTH 600 0
DWIDTH 15 0
BBX 8 4 3 12
BITMAP
c3
66
3c
18
ENDCHAR
STARTCHAR cedilla
ENCODING 184
SWIDTH 600 0
DWIDTH 15 0
BBX 4 5 5 -4
BITMAP
20
20
10
90
60
ENDCHAR
STARTCHAR scaron
ENCODING 185
SWIDTH 600 0
DWIDTH 15 0
BBX 9 16 3 0
BITMAP
6180
3300
1e00
0c00
0000
3e80
4180
4080
4000
3c00
0300
0080
0080
8080
c100
be00
ENDCHAR
STARTCHAR scedilla
ENCODING 186
SWIDTH 600 0
DWIDTH 15 0
BBX 9 16 3 -5
BITMAP
3e80
4180
4080
4000
3c00
0300
0080
0080
8080
c100
be00
0400
0400
0200
1200
0c00
ENDCHAR
STARTCHAR tcaron
ENCODING 187
SWIDTH 600 0
DWIDTH 15 0
BBX 10 18 2 0
BITMAP
0380
0380
0700
2600
2c00
2c00
2000
ff80
2000
2000
2000
2000
2000
2000
2000
2000
10c0
0f00
ENDCHAR
STARTCHAR zacute
ENCODING 188
SWIDTH 600 0
DWIDTH 15 0
BBX 9 16 3 0
BITMAP
0180
0300
0600
0c00
0000
ff80
8080
8100
0200
0400
0800
1000
2000
4080
8080
ff80
ENDCHAR
STARTCHAR doubleacute
ENCODING 189
SWIDTH 600 0
DWIDTH 15 0
BBX 9 4 3 12
BITMAP
1980
3300
6600
cc00
ENDCHAR
STARTCHAR zcaron
ENCODING 190
SWIDTH 600 0
DWIDTH 15 0
BBX 9 16 3 0
BITMAP
6180
3300
1e00
0c00
0000
ff80
8080
8100
0200
0400
0800
1000
2000
4080
8080
ff80
ENDCHAR
STARTCHAR zabovedot
ENCODING 191
SWIDTH 600 0
DWIDTH 15 0
BBX 9 14 3 0
BITMAP
0c00
0c00
0000
ff80
8080
8100
0200
0400
0800
1000
2000
4080
8080
ff80
ENDCHAR
STARTCHAR Racute
ENCODING 192
SWIDTH 600 0
DWIDTH 15 0
BBX 13 19 1 0
BITMAP
00c0
0180
0300
0600
0000
ff80
2040
2020
2020
2020
2020
2040
3f80
2100
2080
2040
2040
2020
f838
ENDCHAR
STARTCHAR Aacute
ENCODING 193
SWIDTH 600 0
DWIDTH 15 0
BBX 13 19 1 0
BITMAP
0080
0100
0200
0400
0000
3f00
0500
0880
0880
0880
1040
1040
1040
3fe0
2020
2020
4010
4010
f078
ENDCHAR
STARTCHAR Acircumflex
ENCODING 194
SWIDTH 600 0
DWIDTH 15 0
BBX 13 18 1 0
BITMAP
0600
0900
1080
0000
3f00
0500
0880
0880
0880
1040
1040
1040
3fe0
2020
2020
4010
4010
f078
ENDCHAR
STARTCHAR Abreve
ENCODING 195
SWIDTH 600 0
DWIDTH 15 0
BBX 13 18 1 0
BITMAP
30c0
1980
0f00
0000
3f00
0500
0880
0880
0880
1040
1040
1040
3fe0
2020
2020
4010
4010
f078
ENDCHAR
STARTCHAR Adiaeresis
ENCODING 196
SWIDTH 600 0
DWIDTH 15 0
BBX 13 17 1 0
BITMAP
18c0
18c0
0000
3f00
0500
0880
0880
0880
1040
1040
1040
3fe0
2020
2020
4010
4010
f078
ENDCHAR
STARTCHAR Lacute
ENCODING 197
SWIDTH 600 0
DWIDTH 15 0
BBX 12 19 1 0
BITMAP
0300
0600
0c00
1800
0000
fe00
1000
1000
1000
1000
1000
1000
1000
1000
1010
1010
1010
1010
fff0
ENDCHAR
STARTCHAR Cacute
ENCODING 198
SWIDTH 600 0
DWIDTH 15 0
BBX 11 19 2 0
BITMAP
00c0
0180
0300
0600
0000
0f20
30e0
6060
4020
8000
8000
8000
8000
8000
8000
4020
6060
30c0
0f00
ENDCHAR
STARTCHAR Ccedilla
ENCODING 199
SWIDTH 600 0
DWIDTH 15 0
BBX 11 18 2 -4
BITMAP
0f20
30e0
6060
4020
8000
8000
8000
8000
8000
8000
4020
6060
30c0
0f00
0400
0200
1200
0c00
ENDCHAR
STARTCHAR Ccaron
ENCODING 200
SWIDTH 600 0
DWIDTH 15 0
BBX 11 19 2 0
BITMAP
30c0
1980
0f00
0600
0000
0f20
30e0
6060
4020
8000
8000
8000
8000
8000
8000
4020
6060
30c0
0f00
ENDCHAR
STARTCHAR Eacute
ENCODING 201
SWIDTH 600 0
DWIDTH 15 0
BBX 12 19 1 0
BITMAP
0080
0100
0200
0400
0000
ffe0
2020
2020
2020
2200
2200
3e00
2200
2200
2010
2010
2010
2010
fff0
ENDCHAR
STARTCHAR Eogonek
ENCODING 202
SWIDTH 600 0
DWIDTH 15 0
BBX 12 19 1 -5
BITMAP
ffe0
2020
2020
2020
2200
2200
3e00
2200
2200
2010
2010
2010
2010
fff0
0200
0400
0800
0900
0600
ENDCHAR
STARTCHAR Ediaeresis
ENCODING 203
SWIDTH 600 0
DWIDTH 15 0
BBX 12 17 1 0
BITMAP
3180
3180
0000
ffe0
2020
2020
2020
2200
2200
3e00
2200
2200
2010
2010
2010
2010
fff0
ENDCHAR
STARTCHAR Ecaron
ENCODING 204
SWIDTH 600 0
DWIDTH 15 0
BBX 12 19 1 0
BITMAP
30c0
1980
0f00
0600
0000
ffe0
2020
2020
2020
2200
2200
3e00
2200
2200
2010
2010
2010
2010
fff0
ENDCHAR
STARTCHAR Iacute
ENCODING 205
SWIDTH 600 0
DWIDTH 15 0
BBX 9 19 3 0
BITMAP
0100
0200
0400
0800
0000
ff80
0800
0800
0800
0800
0800
0800
0800
0800
0800
0800
0800
0800
ff80
ENDCHAR
STARTCHAR Icircumflex
ENCODING 206
SWIDTH 600 0
DWIDTH 15 0
BBX 9 18 3 0
BITMAP
0c00
1200
2100
0000
ff80
0800
0800
0800
0800
0800
0800
0800
0800
0800
0800
0800
0800
ff80
ENDCHAR
STARTCHAR Dcaron
ENCODING 207
SWIDTH 600 0
DWIDTH 15 0
BBX 12 19 1 0
BITMAP
30c0
1980
0f00
0600
0000
ff80
4060
4020
4010
4010
4010
4010
4010
4010
4010
4010
4020
4060
ff80
ENDCHAR
STARTCHAR Dstroke
ENCODING 208
SWIDTH 600 0
DWIDTH 15 0
BBX 13 14 0 0
BITMAP
7fc0
2030
2010
2008
2008
2008
fc08
2008
2008
2008
2008
2010
2030
7fc0
ENDCHAR
STARTCHAR Nacute
ENCODING 209
SWIDTH 600 0
DWIDTH 15 0
BBX 14 19 0 0
BITMAP
0060
00c0
0180
0300
0000
f0fc
3010
2810
2410
2410
2210
2210
2110
2110
2090
2090
2050
2030
fc30
ENDCHAR
STARTCHAR Ncaron
ENCODING 210
SWIDTH 600 0
DWIDTH 15 0
BBX 14 19 0 0
BITMAP
1860
0cc0
0780
0300
0000
f0fc
3010
2810
2410
2410
2210
2210
2110
2110
2090
2090
2050
2030
fc30
ENDCHAR
STARTCHAR Oacute
ENCODING 211
SWIDTH 600 0
DWIDTH 15 0
BBX 12 19 1 0
BITMAP
0080
0100
0200
0400
0000
0f00
30c0
6060
4020
8010
8010
8010
8010
8010
8010
4020
6060
30c0
0f00
ENDCHAR
STARTCHAR Ocircumflex
ENCODING 212
SWIDTH 600 0
DWIDTH 15 0
BBX 12 18 1 0
BITMAP
0600
0900
1080
0000
0f00
30c0
6060
4020
8010
8010
8010
8010
8010
8010
4020
6060
30c0
0f00
ENDCHAR
STARTCHAR Odoubleacute
ENCODING 213
SWIDTH 600 0
DWIDTH 15 0
BBX 12 19 1 0
BITMAP
0330
0660
0cc0
1980
0000
0f00
30c0
6060
4020
8010
8010
8010
8010
8010
8010
4020
6060
30c0
0f00
ENDCHAR
STARTCHAR Odiaeresis
ENCODING 214
SWIDTH 600 0
DWIDTH 15 0
BBX 12 17 1 0
BITMAP
3180
3180
0000
0f00
30c0
6060
4020
8010
8010
8010
8010
8010
8010
4020
6060
30c0
0f00
ENDCHAR
STARTCHAR multiply
ENCODING 215
SWIDTH 600 0
DWIDTH 15 0
BBX 11 11 2 2
BITMAP
8020
4040
2080
1100
0a00
0400
0a00
1100
2080
4040
8020
ENDCHAR
STARTCHAR Rcaron
ENCODING 216
SWIDTH 600 0
DWIDTH 15 0
BBX 13 19 1 0
BITMAP
30c0
1980
0f00
0600
0000
ff80
2040
2020
2020
2020
2020
2040
3f80
2100
2080
2040
2040
2020
f838
ENDCHAR
STARTCHAR Uring
ENCODING 217
SWIDTH 600 0
DWIDTH 15 0
BBX 12 20 1 0
BITMAP
0e00
1100
1100
1100
0e00
0000
f0f0
4020
4020
4020
4020
4020
4020
4020
4020
4020
4020
4020
2040
1f80
ENDCHAR
STARTCHAR Uacute
ENCODING 218
SWIDTH 600 0
DWIDTH 15 0
BBX 12 19 1 0
BITMAP
0080
0100
0200
0400
0000
f0f0
4020
4020
4020
4020
4020
4020
4020
4020
4020
4020
4020
2040
1f80
ENDCHAR
STARTCHAR Udoubleacute
ENCODING 219
SWIDTH 600 0
DWIDTH 15 0
BBX 12 19 1 0
BITMAP
0330
0660
0cc0
1980
0000
f0f0
4020
4020
4020
4020
4020
4020
4020
4020
4020
4020
4020
2040
1f80
ENDCHAR
STARTCHAR Udiaeresis
ENCODING 220
SWIDTH 600 0
DWIDTH 15 0
BBX 12 17 1 0
BITMAP
1980
1980
0000
f0f0
4020
4020
4020
4020
4020
4020
4020
4020
4020
4020
4020
2040
1f80
ENDCHAR
STARTCHAR Yacute
ENCODING 221
SWIDTH 600 0
DWIDTH 15 0
BBX 13 19 1 0
BITMAP
0040
0080
0100
0200
0000
f078
2020
1040
1040
0880
0880
0500
0200
0200
0200
0200
0200
0200
1fc0
ENDCHAR
STARTCHAR Tcedilla
ENCODING 222
SWIDTH 600 0
DWIDTH 15 0
BBX 11 19 2 -5
BITMAP
ffe0
8420
8420
8420
8420
0400
0400
0400
0400
0400
0400
0400
0400
3f80
0200
0200
0100
0900
0600
ENDCHAR
STARTCHAR ssharp
ENCODING 223
SWIDTH 600 0
DWIDTH 15 0
BBX 11 16 2 0
BITMAP
0e00
1100
2080
2080
2080
2080
2100
2700
20c0
2040
2020
2020
2020
2420
2440
f380
ENDCHAR
STARTCHAR racute
ENCODING 224
SWIDTH 600 0
DWIDTH 15 0
BBX 11 16 2 0
BITMAP
00c0
0180
0300
0600
0000
71c0
1620
1800
1000
1000
1000
1000
1000
1000
1000
ff80
ENDCHAR
STARTCHAR aacute
ENCODING 225
SWIDTH 600 0
DWIDTH 15 0
BBX 11 16 2 0
BITMAP
0100
0200
0400
0800
0000
1e00
6100
0080
0080
0080
3f80
4080
8080
8080
8180
7ee0
ENDCHAR
STARTCHAR acircumflex
ENCODING 226
SWIDTH 600 0
DWIDTH 15 0
BBX 11 15 2 0
BITMAP
0c00
1200
2100
0000
1e00
6100
0080
0080
0080
3f80
4080
8080
8080
8180
7ee0
ENDCHAR
STARTCHAR abreve
ENCODING 227
SWIDTH 600 0
DWIDTH 15 0
BBX 11 15 2 0
BITMAP
6180
3300
1e00
0000
1e00
6100
0080
0080
0080
3f80
4080
8080
8080
8180
7ee0
ENDCHAR
STARTCHAR adiaeresis
ENCODING 228
SWIDTH 600 0
DWIDTH 15 0
BBX 11 14 2 0
BITMAP
3180
3180
0000
1e00
6100
0080
0080
0080
3f80
4080
8080
8080
8180
7ee0
ENDCHAR
STARTCHAR lacute
ENCODING 229
SWIDTH 600 0
DWIDTH 15 0
BBX 11 21 2 0
BITMAP
0300
0600
0c00
1800
0000
7c00
0400
0400
0400
0400
0400
0400
0400
0400
0400
0400
0400
0400
0400
0400
ffe0
ENDCHAR
STARTCHAR cacute
ENCODING 230
SWIDTH 600 0
DWIDTH 15 0
BBX 11 16 2 0
BITMAP
00c0
0180
0300
0600
0000
1f40
60c0
4040
8040
8000
8000
8000
8000
4060
60c0
1f00
ENDCHAR
STARTCHAR ccedilla
ENCODING 231
SWIDTH 600 0
DWIDTH 15 0
BBX 11 15 2 -4
BITMAP
1f40
60c0
4040
8040
8000
8000
8000
8000
4060
60c0
1f00
0400
0200
1200
0c00
ENDCHAR
STARTCHAR ccaron
ENCODING 232
SWIDTH 600 0
DWIDTH 15 0
BBX 11 16 2 0
BITMAP
30c0
1980
0f00
0600
0000
1f40
60c0
4040
8040
8000
8000
8000
8000
4060
60c0
1f00
ENDCHAR
STARTCHAR eacute
ENCODING 233
SWIDTH 600 0
DWIDTH 15 0
BBX 11 16 2 0
BITMAP
0080
0100
0200
0400
0000
1f00
60c0
4040
8020
8020
ffe0
8000
8000
4000
6060
1f80
ENDCHAR
STARTCHAR eogonek
ENCODING 234
SWIDTH 600 0
DWIDTH 15 0
BBX 11 16 2 -5
BITMAP
1f00
60c0
4040
8020
8020
ffe0
8000
8000
4000
6060
1f80
0200
0400
0800
0900
0600
ENDCHAR
STARTCHAR ediaeresis
ENCODING 235
SWIDTH 600 0
DWIDTH 15 0
BBX 11 14 2 0
BITMAP
3180
3180
0000
1f00
60c0
4040
8020
8020
ffe0
8000
8000
4000
6060
1f80
ENDCHAR
STARTCHAR ecaron
ENCODING 236
SWIDTH 600 0
DWIDTH 15 0
BBX 11 16 2 0
BITMAP
30c0
1980
0f00
0600
0000
1f00
60c0
4040
8020
8020
ffe0
8000
8000
4000
6060
1f80
ENDCHAR
STARTCHAR iacute
ENCODING 237
SWIDTH 600 0
DWIDTH 15 0
BBX 9 16 3 0
BITMAP
0200
0400
0800
1000
0000
7800
0800
0800
0800
0800
0800
0800
0800
0800
0800
ff80
ENDCHAR
STARTCHAR icircumflex
ENCODING 238
SWIDTH 600 0
DWIDTH 15 0
BBX 9 15 3 0
BITMAP
1800
2400
4200
0000
7800
0800
0800
0800
0800
0800
0800
0800
0800
0800
ff80
ENDCHAR
STARTCHAR dcaron
ENCODING 239
SWIDTH 760 0
DWIDTH 19 0
BBX 17 18 1 0
BITMAP
000380
000380
00e700
002600
002c00
002c00
002000
1f2000
60e000
406000
802000
802000
802000
802000
802000
406000
60e000
1f3800
ENDCHAR
STARTCHAR dstroke
ENCODING 240
SWIDTH 600 0
DWIDTH 15 0
BBX 13 16 1 0
BITMAP
00e0
0020
00f8
0020
0020
1f20
60e0
4060
8020
8020
8020
8020
8020
4060
60e0
1f38
ENDCHAR
STARTCHAR nacute
ENCODING 241
SWIDTH 600 0
DWIDTH 15 0
BBX 13 16 1 0
BITMAP
0180
0300
0600
0c00
0000
e780
2840
3020
2020
2020
2020
2020
2020
2020
2020
f8f8
ENDCHAR
STARTCHAR ncaron
ENCODING 242
SWIDTH 600 0
DWIDTH 15 0
BBX 13 16 1 0
BITMAP
6180
3300
1e00
0c00
0000
e780
2840
3020
2020
2020
2020
2020
2020
2020
2020
f8f8
ENDCHAR
STARTCHAR oacute
ENCODING 243
SWIDTH 600 0
DWIDTH 15 0
BBX 11 16 2 0
BITMAP
0080
0100
0200
0400
0000
1f00
60c0
4040
8020
8020
8020
8020
8020
4040
60c0
1f00
ENDCHAR
STARTCHAR ocircumflex
ENCODING 244
SWIDTH 600 0
DWIDTH 15 0
BBX 11 15 2 0
BITMAP
0600
0900
1080
0000
1f00
60c0
4040
8020
8020
8020
8020
8020
4040
60c0
1f00
ENDCHAR
STARTCHAR odoubleacute
ENCODING 245
SWIDTH 600 0
DWIDTH 15 0
BBX 12 16 2 0
BITMAP
0330
0660
0cc0
1980
0000
1f00
60c0
4040
8020
8020
8020
8020
8020
4040
60c0
1f00
ENDCHAR
STARTCHAR odiaeresis
ENCODING 246
SWIDTH 600 0
DWIDTH 15 0
BBX 11 14 2 0
BITMAP
3180
3180
0000
1f00
60c0
4040
8020
8020
8020
8020
8020
4040
60c0
1f00
ENDCHAR
STARTCHAR division
ENCODING 247
SWIDTH 600 0
DWIDTH 15 0
BBX 11 11 2 2
BITMAP
0e00
0e00
0e00
0000
0000
ffe0
0000
0000
0e00
0e00
0e00
ENDCHAR
STARTCHAR rcaron
ENCODING 248
SWIDTH 600 0
DWIDTH 15 0
BBX 11 16 2 0
BITMAP
30c0
1980
0f00
0600
0000
71c0
1620
1800
1000
1000
1000
1000
1000
1000
1000
ff80
ENDCHAR
STARTCHAR uring
ENCODING 249
SWIDTH 600 0
DWIDTH 15 0
BBX 12 17 1 0
BITMAP
0e00
1100
1100
1100
0e00
0000
e0e0
2020
2020
2020
2020
2020
2020
2020
2060
10a0
0f30
ENDCHAR
STARTCHAR uacute
ENCODING 250
SWIDTH 600 0
DWIDTH 15 0
BBX 12 16 1 0
BITMAP
0080
0100
0200
0400
0000
e0e0
2020
2020
2020
2020
2020
2020
2020
2060
10a0
0f30
ENDCHAR
STARTCHAR udoubleacute
ENCODING 251
SWIDTH 600 0
DWIDTH 15 0
BBX 12 16 1 0
BITMAP
0330
0660
0cc0
1980
0000
e0e0
2020
2020
2020
2020
2020
2020
2020
2060
10a0
0f30
ENDCHAR
STARTCHAR udiaeresis
ENCODING 252
SWIDTH 600 0
DWIDTH 15 0
BBX 12 14 1 0
BITMAP
3180
3180
0000
e0e0
2020
2020
2020
2020
2020
2020
2020
2060
10a0
0f30
ENDCHAR
STARTCHAR yacute
ENCODING 253
SWIDTH 600 0
DWIDTH 15 0
BBX 12 21 1 -5
BITMAP
0040
0080
0100
0200
0000
f0f0
4020
4020
2040
2040
2080
1080
1100
0900
0a00
0600
0400
0400
0800
0800
fe00
ENDCHAR
STARTCHAR tcedilla
ENCODING 254
SWIDTH 600 0
DWIDTH 15 0
BBX 10 20 2 -5
BITMAP
2000
2000
2000
2000
ff80
2000
2000
2000
2000
2000
2000
2000
2000
10c0
0f00
0400
0400
0200
1200
0c00
ENDCHAR
STARTCHAR abovedot
ENCODING 255
SWIDTH 600 0
DWIDTH 15 0
BBX 2 2 6 12
BITMAP
c0
c0
ENDCHAR
ENDFONT
